# xmcd
#
# Track frame offsets:
# 182
# 13167
# 23507
# 35505
# 49217
# 60662
# 75692
# 89600
# 103002
# 115830
# 127457
# 146632
# 161575
#
# Disc length: 2312 seconds
#
#
# Revision: 0
# Processed by: cddbd v1.5.1PL0 Copyright (c) Steve Scherf et al.
# Submitted via: FreeRIP 2.70 
#
DISCID=b309060d
DTITLE=Rodgers, Jimmie - 40 All-Time Greatest Hits - Disc 2
DYEAR=2000
DGENRE=Country
TTITLE0=Tammy
TTITLE1=Unchained Melody
TTITLE2=Love Letters In The Sand
TTITLE3=My Prayer
TTITLE4=The Song From Moulin-Rouge
TTITLE5=Secret Love
TTITLE6=Three Coins In The Fountain
TTITLE7=Que Sera Sera
TTITLE8=Hey There
TTITLE9=Hush Little Baby
TTITLE10=Cool Water
TTITLE11=Shenandoah
TTITLE12=I Believe
EXTD=Entered By Itaot...
EXTT0=
EXTT1=
EXTT2=
EXTT3=
EXTT4=
EXTT5=
EXTT6=
EXTT7=
EXTT8=
EXTT9=
EXTT10=
EXTT11=
EXTT12=
PLAYORDER=
